<svg width="172.99999999999997" height="40.00000000000001" xmlns="http://www.w3.org/2000/svg" fill="none">
 <defs>
  <clipPath id="clip0">
   <rect id="svg_1" x="6.85715" y="6.85714" fill="white" height="27.4286" width="27.4286"/>
  </clipPath>
 </defs>
 <g>
  <title>Layer 1</title>
  <path id="svg_2" fill="#191919" d="m56.792,21.304c0,-1.344 0.264,-2.536 0.792,-3.576c0.544,-1.04 1.28,-1.84 2.208,-2.4c0.928,-0.56 1.96,-0.84 3.096,-0.84c0.864,0 1.688,0.192 2.472,0.576c0.784,0.368 1.408,0.864 1.872,1.488l0,-6.312l3.408,0l0,17.76l-3.408,0l0,-1.968c-0.416,0.656 -1,1.184 -1.752,1.584c-0.752,0.4 -1.624,0.6 -2.616,0.6c-1.12,0 -2.144,-0.288 -3.072,-0.864c-0.928,-0.576 -1.664,-1.384 -2.208,-2.424c-0.528,-1.056 -0.792,-2.264 -0.792,-3.624zm10.464,0.048c0,-0.816 -0.16,-1.512 -0.48,-2.088c-0.32,-0.592 -0.752,-1.04 -1.296,-1.344c-0.544,-0.32 -1.128,-0.48 -1.752,-0.48c-0.624,0 -1.2,0.152 -1.728,0.456c-0.528,0.304 -0.96,0.752 -1.296,1.344c-0.32,0.576 -0.48,1.264 -0.48,2.064c0,0.8 0.16,1.504 0.48,2.112c0.336,0.592 0.768,1.048 1.296,1.368c0.544,0.32 1.12,0.48 1.728,0.48c0.624,0 1.208,-0.152 1.752,-0.456c0.544,-0.32 0.976,-0.768 1.296,-1.344c0.32,-0.592 0.48,-1.296 0.48,-2.112z"/>
  <path id="svg_3" fill="#191919" d="m77.8336,17.464l0,6.432c0,0.448 0.104,0.776 0.312,0.984c0.224,0.192 0.592,0.288 1.104,0.288l1.56,0l0,2.832l-2.112,0c-2.832,0 -4.248,-1.376 -4.248,-4.128l0,-6.408l-1.584,0l0,-2.76l1.584,0l0,-3.288l3.384,0l0,3.288l2.976,0l0,2.76l-2.976,0z"/>
  <path id="svg_4" fill="#191919" d="m105.457,14.512c1.632,0 2.944,0.504 3.936,1.512c1.008,0.992 1.512,2.384 1.512,4.176l0,7.8l-3.36,0l0,-7.344c0,-1.04 -0.264,-1.832 -0.792,-2.376c-0.528,-0.56 -1.248,-0.84 -2.16,-0.84c-0.912,0 -1.64,0.28 -2.184,0.84c-0.528,0.544 -0.792,1.336 -0.792,2.376l0,7.344l-3.3599,0l0,-7.344c0,-1.04 -0.264,-1.832 -0.792,-2.376c-0.528,-0.56 -1.248,-0.84 -2.16,-0.84c-0.928,0 -1.664,0.28 -2.208,0.84c-0.528,0.544 -0.792,1.336 -0.792,2.376l0,7.344l-3.36,0l0,-13.296l3.36,0l0,1.608c0.432,-0.56 0.984,-1 1.656,-1.32c0.688,-0.32 1.44,-0.48 2.256,-0.48c1.04,0 1.968,0.224 2.784,0.672c0.816,0.432 1.4479,1.056 1.8959,1.872c0.432,-0.768 1.056,-1.384 1.872,-1.848c0.832,-0.464 1.728,-0.696 2.688,-0.696z"/>
  <path id="svg_5" fill="#191919" d="m119.997,28.216c-1.28,0 -2.432,-0.28 -3.456,-0.84c-1.024,-0.576 -1.832,-1.384 -2.424,-2.424c-0.576,-1.04 -0.864,-2.24 -0.864,-3.6c0,-1.36 0.296,-2.56 0.888,-3.6c0.608,-1.04 1.432,-1.84 2.472,-2.4c1.04,-0.576 2.2,-0.864 3.48,-0.864c1.28,0 2.44,0.288 3.48,0.864c1.04,0.56 1.856,1.36 2.448,2.4c0.608,1.04 0.912,2.24 0.912,3.6c0,1.36 -0.312,2.56 -0.936,3.6c-0.608,1.04 -1.44,1.848 -2.496,2.424c-1.04,0.56 -2.208,0.84 -3.504,0.84zm0,-2.928c0.608,0 1.176,-0.144 1.704,-0.432c0.544,-0.304 0.976,-0.752 1.296,-1.344c0.32,-0.592 0.48,-1.312 0.48,-2.16c0,-1.264 -0.336,-2.232 -1.008,-2.904c-0.656,-0.688 -1.464,-1.032 -2.424,-1.032c-0.96,0 -1.768,0.344 -2.424,1.032c-0.64,0.672 -0.96,1.64 -0.96,2.904c0,1.264 0.312,2.24 0.936,2.928c0.64,0.672 1.44,1.008 2.4,1.008z"/>
  <path id="svg_6" fill="#191919" d="m136.766,14.512c1.584,0 2.864,0.504 3.84,1.512c0.976,0.992 1.464,2.384 1.464,4.176l0,7.8l-3.36,0l0,-7.344c0,-1.056 -0.264,-1.864 -0.792,-2.424c-0.528,-0.576 -1.248,-0.864 -2.16,-0.864c-0.928,0 -1.664,0.288 -2.208,0.864c-0.528,0.56 -0.792,1.368 -0.792,2.424l0,7.344l-3.36,0l0,-13.296l3.36,0l0,1.656c0.448,-0.576 1.016,-1.024 1.704,-1.344c0.704,-0.336 1.472,-0.504 2.304,-0.504z"/>
  <path id="svg_7" fill="#191919" d="m157.625,21.064c0,0.48 -0.032,0.912 -0.096,1.296l-9.72,0c0.08,0.96 0.416,1.712 1.008,2.256c0.592,0.544 1.32,0.816 2.184,0.816c1.248,0 2.136,-0.536 2.664,-1.608l3.624,0c-0.384,1.28 -1.12,2.336 -2.208,3.168c-1.088,0.816 -2.424,1.224 -4.008,1.224c-1.28,0 -2.432,-0.28 -3.456,-0.84c-1.008,-0.576 -1.8,-1.384 -2.376,-2.424c-0.56,-1.04 -0.84,-2.24 -0.84,-3.6c0,-1.376 0.28,-2.584 0.84,-3.624c0.56,-1.04 1.344,-1.84 2.352,-2.4c1.008,-0.56 2.168,-0.84 3.48,-0.84c1.264,0 2.392,0.272 3.384,0.816c1.008,0.544 1.784,1.32 2.328,2.328c0.56,0.992 0.84,2.136 0.84,3.432zm-3.48,-0.96c-0.016,-0.864 -0.328,-1.552 -0.936,-2.064c-0.608,-0.528 -1.352,-0.792 -2.232,-0.792c-0.832,0 -1.536,0.256 -2.112,0.768c-0.56,0.496 -0.904,1.192 -1.032,2.088l6.312,0z"/>
  <path id="svg_8" fill="#191919" d="m172.798,14.704l-8.232,19.584l-3.576,0l2.88,-6.624l-5.328,-12.96l3.768,0l3.432,9.288l3.48,-9.288l3.576,0z"/>
  <path id="svg_9" fill="#33CC95" d="m34.1422,5.85781c-3.7775,-3.7775 -8.8,-5.85781 -14.1422,-5.85781c-5.3422,0 -10.36469,2.08031 -14.14219,5.85781c-3.7775,3.7775 -5.85781,8.79999 -5.85781,14.14219c0,5.3422 2.08039,10.3646 5.85781,14.1422c3.77742,3.7776 8.79999,5.8578 14.14219,5.8578c5.3422,0 10.3647,-2.0803 14.1422,-5.8578c3.7775,-3.7775 5.8578,-8.8 5.8578,-14.1422c0,-5.3422 -2.0804,-10.36461 -5.8578,-14.14219z"/>
  <g id="svg_10" clip-path="url(#clip0)">
   <path id="svg_11" stroke-linejoin="round" stroke-linecap="round" stroke-width="2" stroke="white" d="m20.5714,8l0,25.1429"/>
   <path id="svg_12" stroke-linejoin="round" stroke-linecap="round" stroke-width="2" stroke="white" d="m26.2857,12.5714l-8.5714,0c-1.0609,0 -2.0783,0.4215 -2.8284,1.1716c-0.7502,0.7501 -1.1716,1.7676 -1.1716,2.8284c0,1.0609 0.4214,2.0783 1.1716,2.8285c0.7501,0.7501 1.7675,1.1715 2.8284,1.1715l5.7143,0c1.0608,0 2.0783,0.4215 2.8284,1.1716c0.7502,0.7502 1.1716,1.7676 1.1716,2.8284c0,1.0609 -0.4214,2.0783 -1.1716,2.8285c-0.7501,0.7501 -1.7676,1.1715 -2.8284,1.1715l-9.7143,0"/>
  </g>
 </g>
</svg>